<svg id="eWJCrAXZ5na1" xmlns="http://www.w3.org/2000/svg" xmlns:xlink="http://www.w3.org/1999/xlink" viewBox="0 0 50 50" shape-rendering="geometricPrecision" text-rendering="geometricPrecision"><g><ellipse rx="25" ry="25" transform="translate(25 25)" fill="#fff" stroke-width="0"/><g transform="matrix(.258264 0 0 0.258264-43.247722-59.648619)"><path d="M175.65416,329.39506h12.63v2.99625h-9.26375v6.63875h9.26375v2.995h-9.26375v11.01625h-3.36625v-23.64625Z" fill="#0b335e"/><path d="M192.42291,329.39506h3.08875v23.64625h-3.08875v-23.64625Z" fill="#0b335e"/><path d="M200.89291,337.46131h3.0875v15.58h-3.0875v-15.58Zm1.5175-6.54375c.5075,0,.94125.1725,1.30375.52375.36125.35.5425.77875.5425,1.2875c0,.49625-.18125.92625-.5425,1.28751-.3625.36124-.79625.54124-1.30375.54124-.47375,0-.89125-.1825-1.25375-.55-.36-.3675-.54125-.79375-.54125-1.27875c0-.47375.18125-.89499.54125-1.26125.3625-.3675.78-.55,1.25375-.55" fill="#0b335e"/><path d="M214.28166,340.13506c-.84125,0-1.55625.28125-2.14625.8475-.59.5675-.88625,1.24625-.88625,2.0375c0,.80375.29,1.46875.87,1.995.57875.52625,1.31.78875,2.195.78875.875,0,1.60375-.26875,2.18875-.80625.585-.53624.8775-1.20625.8775-2.00999c0-.815-.29625-1.49375-.88625-2.03625-.59125-.54501-1.3275-.81626-2.2125-.81626m-.725,13.66251c-1.0425,0-1.895.22125-2.5575.66-.6625.44-.995,1.00625-.995,1.69875c0,1.61,1.45125,2.41625,4.35125,2.41625c1.37,0,2.43125-.2025,3.185-.605.755-.4025,1.13125-.97251,1.13125-1.7075c0-.7275-.4775-1.31875-1.42875-1.775-.95125-.45875-2.18-.6875-3.68625-.6875m-5.0725-10.93875c0-1.66375.6075-2.97875,1.8225-3.9475c1.21625-.965,2.875-1.45,4.97875-1.45h6.4275v2.3975h-3.14625c.61.62375,1.0325,1.18875,1.26875,1.69875.23625.51125.3575,1.095.3575,1.7525c0,.81625-.23375,1.6175-.6975,2.405-.465.7875-1.0625,1.39125-1.7925,1.81-.73125.42-1.92875.75375-3.59375,1.0025-1.16875.16875-1.7525.57125-1.7525,1.20125c0,.3625.2175.65875.655.89125.43625.23125,1.2275.4725,2.37375.72c1.9175.4175,3.15.74625,3.69375.9825.54625.23625,1.0375.575,1.47625,1.0175.74125.74375,1.1125,1.68125,1.1125,2.81125c0,1.48-.66,2.66-1.97375,3.5425-1.315.88-3.075,1.32125-5.27625,1.32125-2.22375,0-4-.44375-5.32625-1.33125-1.3275-.8875-1.99-2.07625-1.99-3.56625c0-2.11375,1.3-3.4725,3.90375-4.08375-1.035-.665-1.5525-1.32625-1.5525-1.9825c0-.49625.22125-.94625.665-1.355.445-.405,1.0425-.705,1.79625-.8975-2.2875-1.0175-3.43-2.66375-3.43-4.94" fill="#0b335e"/><path d="M224.88666,329.39506h3.0875v10.085c1.28375-1.56,2.87625-2.34125,4.78125-2.34125c1.035,0,1.965.25875,2.78625.78.82375.51875,1.4325,1.2375,1.83375,2.1525.40125.9175.60125,2.2775.60125,4.085v8.885h-3.08875v-9.65875c0-1.14125-.27875-2.06125-.83625-2.75625-.555-.69625-1.29-1.045-2.2-1.045-.67375,0-1.30875.175-1.905.525-.595.35-1.25375.93-1.9725,1.7425v11.1925h-3.0875v-23.64625Z" fill="#0b335e"/><path d="M240.96916,339.92256l5.8075-5.6875v3.22625h4.88625v2.765h-4.88625v7.68c0,1.79375.7325,2.69125,2.1975,2.69125c1.095,0,2.2525-.36875,3.47125-1.10625v2.8725c-1.1775.66875-2.46375,1-3.85625,1-1.40375,0-2.57125-.415-3.50375-1.24375-.2925-.24875-.5325-.53-.72375-.84-.19125-.31375-.35-.72-.48-1.2275-.12875-.50375-.19375-1.465-.19375-2.8825v-6.94375h-2.71875v-.30375Z" fill="#0b335e"/><path d="M297.27791,337.46131h3.3l-6.845,15.9025h-1.025l-4.5975-10.89125-4.515,10.89125h-1.04l-6.91375-15.9025h3.3075l4.09,9.48l3.93125-9.48h2.29625l3.95875,9.48l4.0525-9.48Z" fill="#0b335e"/><path d="M310.34416,349.95006v-4.60625l-2.06125.79375c-1.0475.41625-1.7875.835-2.22125,1.2575-.435.4225-.65.9475-.65,1.57875c0,.64.20375,1.165.6175,1.56875.41.40625.94125.60875,1.59375.60875.98125,0,1.88625-.40125,2.72125-1.20125m3.04125-6.2775v6.635c0,.53.18125.7975.545.7975.37875,0,.96375-.2775,1.76-.83v1.85625c-.7.44125-1.26125.7425-1.685.90125-.4225.15875-.865.23875-1.3275.23875-1.32,0-2.0975-.51-2.33375-1.5275-1.31,1.0175-2.70375,1.5275-4.1825,1.5275-1.08375,0-1.98625-.36-2.70875-1.075-.72375-.715-1.0825-1.61375-1.0825-2.695c0-.9825.35-1.8575,1.0525-2.63.7025-.77125,1.69875-1.38375,2.9925-1.835l3.92875-1.3525v-.84125c0-1.89625-.93625-2.84625-2.8025-2.84625-1.6775,0-3.30875.86-4.89625,2.58125v-3.33999c1.195-1.39876,2.915-2.09875,5.15875-2.09875c1.68,0,3.02625.44125,4.0425,1.32375.3375.2825.6425.65875.9125,1.12875.27125.46875.44125.9375.515,1.4075s.11125,1.3625.11125,2.67375" fill="#0b335e"/><path d="M321.72916,337.46131v3.5575l.16875-.27125c1.4925-2.40625,2.9875-3.60875,4.48-3.60875c1.165,0,2.38.5875,3.6475,1.76125l-1.62875,2.71c-1.075-1.01375-2.07-1.52125-2.98625-1.52125-.995,0-1.85875.475-2.58625,1.425-.73125.95-1.095,2.07375-1.095,3.3725v8.155h-3.08875v-15.58h3.08875Z" fill="#0b335e"/><path d="M334.71041,343.68381h7.83625c-.0788-1.23875-.4475-2.19375-1.1-2.865-.65375-.67125-1.535-1.00625-2.64125-1.00625s-2.01.335-2.715,1.00625c-.70625.67125-1.16625,1.62625-1.38,2.865m10.87875,1.845h-10.92375c.0763,1.49125.57625,2.68,1.49125,3.56125.9175.8825,2.1025,1.32375,3.5525,1.32375c2.025,0,3.89375-.63,5.6025-1.89v2.99625c-.94625.62875-1.88375,1.0775-2.8125,1.34625s-2.01875.405-3.27.405c-1.7125,0-3.09625-.355-4.155-1.0675-1.05875-.71125-1.90625-1.66875-2.54375-2.87125-.6375-1.20375-.955-2.59625-.955-4.18c0-2.3725.67-4.3,2.01125-5.785s3.08375-2.22875,5.2225-2.22875c2.06375,0,3.70875.72375,4.9375,2.17375c1.2275,1.45,1.8425,3.39125,1.8425,5.825v.39125Z" fill="#0b335e"/><path d="M257.54291,351.93881c0,0,17.46625-26.42,52.755-36.13125" fill="none" stroke="#2d9edf" stroke-width="2.2125" stroke-linecap="round" stroke-dasharray="5.9"/><path d="M352.85541,306.57506c.0238.11375-.20125.475-.4375.70125-.34625.33625-1.3075,1.47-5.135,2.29625-3.8325.82625-8.6825,1.72-9.0375,1.7775-.35375.0563-1.0125-.0787-1.37125,1.05-.355,1.12625-4.60125,16.38875-4.60125,16.38875l-1.275.2725-1.4575-15.9725c0,0-9.06,1.79375-10.00125,1.77625l-2.29375,6.10625-1.18375.145.25-6.18125c0,0-1.265-.195-1.47125-.235-.0975-.02-.17125-.02-.19-.11l-.001-.0113c-.0125-.0825.0487-.10875.13125-.16875.17125-.11875,1.2525-.805,1.2525-.805l-2.71375-5.5575l1.14375-.345l4.5525,4.67c.85375-.39375,9.8725-2.39125,9.8725-2.39125l-5.08525-15.21375l1.27875-.2625c0,0,10.01875,12.27125,10.8,13.16.78125.88625,1.32875.49875,1.67625.41125.3475-.0937,5.15-1.22125,8.98875-2.0075c3.84125-.78,5.1725-.12875,5.625.0387.30875.1125.65625.34375.68125.4575l.002.01Z" fill="#2d9edf"/><path d="M265.56416,334.46256l-7.83625,18.57875h-3.48l10.1275-23.78375h2.3675l10.645,23.78375h-3.465l-8.35875-18.57875Z" fill="#0b335e"/></g></g></svg>
