<svg id="ezcjfvHPh6M1" xmlns="http://www.w3.org/2000/svg" xmlns:xlink="http://www.w3.org/1999/xlink" viewBox="0 0 93.05 93.05" shape-rendering="geometricPrecision" text-rendering="geometricPrecision"><g transform="matrix(2.432212 0 0 2.432212-201.43689-12.513651)"><ellipse rx="19.12821" ry="19.12821" transform="translate(101.949595 24.274108)" fill="#fff" stroke="rgba(163,139,139,0)" stroke-width="0.5"/><g transform="matrix(.167443 0 0 0.167443 105.773219-.374847)"><g transform="matrix(.352778 0 0-.352778-124.59 172.314)"><g transform="matrix(.1 0 0 0.1 0 0)"><g><g clip-path="url(#ezcjfvHPh6M25)"><g><path d="M5691.66,63.7617c7.91,0,14.9.5664,14.9,10.0196c0,7.5781-6.87,8.9804-13.36,8.9804h-12.67v-19ZM5680.53,29.25h-9.32v61.4219h23.38c14.59,0,21.72-5.3516,21.72-17.461c0-11-6.88-15.789-15.92-16.9218L5717.83,29.25h-10.43l-16.17,26.6289h-10.7Zm11.27-13.6016c24.06,0,43.1,18.8399,43.1,44.4727c0,25.1992-19.04,44.2109-43.1,44.2109-24.34,0-43.38-19.0117-43.38-44.2109c0-25.6328,19.04-44.4727,43.38-44.4727Zm-54.09,44.4727c0,30.5508,24.79,53.0699,54.09,53.0699c29.04,0,53.75-22.5191,53.75-53.0699c0-30.8711-24.71-53.38282-53.75-53.38282-29.3,0-54.09,22.51172-54.09,53.38282" fill="#1c4e9c"/><path d="M2505.14,179.539c-7.34-12.41-30.14-48.969-45.54-78.848c6.54-.351,35.85-.9801,41.65-.9801c3.89,0,17.38,0,23.56.9801-2.29,14.438-14.72,63.059-19.67,78.848ZM2367.82,2.67969c8.41,3.6914,16.56,15.14061,28.46,30.21871c24.71,30.8633,55.23,81.8826,81.41,124.1526c9.29,15.109,19.35,30.539,19.35,40.961c0,5.027-1.59,8.328-2.74,10.726c2.74-.34,6.18-.699,9.29-1.019c3.46,0,6.12-.34,7.72-.34c9.62,0,16.19,1.703,20.44,2.703c3.82-31.211,11.97-56.41,23.51-108.41c12.34-53.34,27-98.00012,39.36-98.99231l-.39-1.34766h-14.26c-2.73,0-26.25,0-33.18-1.33203-2.3,14.7891-10.07,58.6992-18.09,87.2305-5.48.6914-24.72.6914-36.69.6914-2.66,0-26.23,0-39.36-.6914-6.55-9.3594-38.59-64.7696-38.59-76.4688c0-6.7617,6.18-7.73045,7.31-8.08201l-.38-1.34766c-9.23.9961-22.73,1.34766-26.24,1.34766-4.2,0-18.09-.64063-27.38-1.34766l.45,1.34766" fill="#1c4e9c"/><path d="M2806.96,10.0313c4.27,1.0078,7.76,3.3789,11.22,8.7187c7.31,11.75,15.47,58.3711,21.58,101.012c5.03,35.226,9.23,64.109,9.23,76.179c0,13.758-3.43,17.129-9.23,18.797l.38,1.364c8.85-.704,17.39-1.364,29.74-1.364c7.33,0,21.58.66,29.69,1.364l-.39-1.364c-5.35-1.668-8.09-3.316-11.59-8.738-6.18-9-13.5-51.012-18.91-86.238-6.51-42.6409-11.99-74.4729-11.99-91.9222c0-14.8007,5.86-16.8007,9.68-17.8085l-.39-1.33989c-9.61.70703-17.3,1.33989-29.72,1.33989-10.01,0-20.01-.35942-29.69-1.33989l.39,1.33989" fill="#1c4e9c"/><path d="M3244.24,111.039c20.45,0,35.15,4.031,44.84,10.063c14.26,9.109,20.06,23.507,20.06,41.277c0,11.402-1.97,21.492-12.36,30.23-9.28,7.731-28.23,11.391-40.12,11.391-8.87,0-18.16-.68-21.97-1.68-2.74-9.711-11.98-52.308-17.39-88.57c8.85-1.711,17.7-2.711,26.94-2.711ZM3157.03,10.0313c4.28,1.0078,7.74,3.3789,11.23,8.7187c7.33,11.75,15.41,58.3711,21.6,101.012c5.02,35.226,9.28,64.109,9.28,76.179c0,13.758-3.42,17.129-9.28,18.797l.43,1.364c4.59-.352,8.85-.704,12.74-1.02c4.2-.344,10.39-.344,16.95-.344c7.38,0,15.02.66,23.57,1.364c8.44.636,17.31,1.339,26.61,1.339c46.25,0,71.72-9.441,71.72-42.953c0-40.277-43.19-63.449-64.46-70.156c8.91-20.1523,38.28-61.082,47.52-74.4922c5.78-8.4101,12.74-15.75,22.4-19.8085l-.43-1.33989c-1.91.30859-5.03.70703-8.08.98047-3.09.35942-6.58.35942-10,.35942-9.67,0-19.32-1.0313-27.83-2.69146-13.5,23.83206-25.43,47.33206-40.47,69.49216-6.98,10.0782-11.25,17.1172-15.84,20.1368-7.8,4.6602-25.08,4.3202-28.54,4.6602-5.43-33.5509-9.31-60.0079-9.31-73.7892c0-14.8007,5.8-16.8007,9.7-17.8085l-.39-1.33989c-9.69.70703-17.38,1.33989-29.76,1.33989-9.98,0-19.98-.35942-29.67-1.33989l.31,1.33989" fill="#1c4e9c"/><path d="M3772.73,51.332c-7.32-14.8007-11.97-29.2109-16.17-45.70309C3748.79,7.33984,3740.7,8.37109,3730.33,9c-10.84.67188-23.94,1.0313-43.26,1.0313-23.16,0-47.44-.35942-70.18-1.33989l.4,1.33989c4.19,1.0078,7.69,3.3789,11.13,8.7187c7.32,11.75,15.47,58.3711,21.58,101.012c5.06,35.226,9.3,64.109,9.3,76.179c0,13.758-3.5,17.129-9.3,18.797l.47,1.364c8.83-.704,17.3-1.364,29.67-1.364c7.32,0,21.66.66,29.74,1.364l-.47-1.364c-5.41-1.668-8.06-3.316-11.5-8.738-6.17-9-13.5-51.012-18.93-86.238-6.93-44.9339-12.73-81.1839-13.12-96.6409c5.8-.6797,11.91-1,18.09-1c22.05,0,47.51,5,57.91,9.75c7.3,3.3477,18.9,6.707,25.46,21.1172l5.41-1.6563" fill="#1c4e9c"/><path d="M4040.68,10.0313c4.34,1.0078,7.78,3.3789,11.29,8.7187c7.25,11.75,15.33,58.3711,21.51,101.012c5.09,35.226,9.29,64.109,9.29,76.179c0,13.758-3.49,17.129-9.29,18.797l.39,1.364c8.9-.704,17.38-1.364,29.74-1.364c7.33,0,21.59.66,29.75,1.364l-.39-1.364c-5.41-1.668-8.15-3.316-11.58-8.738-6.18-9-13.58-51.012-18.93-86.238-6.48-42.6409-11.97-74.4729-11.97-91.9222c0-14.8007,5.8-16.8007,9.63-17.8085l-.33-1.33989c-9.67.70703-17.39,1.33989-29.73,1.33989-10.06,0-20.08-.35942-29.69-1.33989l.31,1.33989" fill="#1c4e9c"/><path d="M4384.69,10.0313c5.41,2.3593,10.43,5.0585,15.47,16.4296c4.96,11.4102,8.47,29.8985,13.04,47.6602C4425.18,120.43,4435.18,179.5,4435.18,188.93c0,3.039-2.66,6.691-8.09,13.75-6.11,7.718-9.22,9.402-16.19,12.058v1.364c10.08-1.02,23.9-1.364,27.42-1.364c7.75,0,17.75.344,23.5,1.364c20.06-31.891,37.05-56.731,65.58-92.602c21.27-26.8789,42.87-52.3789,63.64-76.1797c2.73,15.7695,17.83,101.3397,17.83,142.2617c0,12.09,0,22.859-9.69,25.156l.37,1.364c4.67-.352,18.16-1.364,27.4-1.364c8.93,0,23.95,1.012,27.01,1.364v-1.364c-5.74-1.668-8.47-4.699-10.39-7.359-7.69-10.379-9.61-26.508-23.1-85.258-11.23-48.3124-21.66-101.3202-23.58-113.42959C4594.53,9,4592.64,9,4590.33,9c-2.36,0-4.65,0-6.93-.30859C4565.61,31.5313,4481.17,132.859,4448.38,177.172c-3.54-17.141-16.56-126.5431-16.56-153.7111c0-9.3711,4.2-11.75,8-13.4296l-.31-1.33989c-9.3.98047-18.53,1.33989-27.83,1.33989-9.24,0-18.54-.63286-27.38-1.33989l.39,1.33989" fill="#1c4e9c"/><path d="M5089.86,47.9492c-8.92-11.4179-18.55-30.2109-24.33-42.32029C5044.32,8.01172,5022.68,9,5000.68,9.39844c-21.58.63286-43.61.63286-64.82.63286-10.02,0-20.08-.35942-29.69-1.33989l.39,1.33989c4.26,1.0078,7.7,3.3789,11.19,8.7187c7.33,11.75,15.43,58.3711,21.61,101.012c5.03,35.226,9.23,64.109,9.23,76.179c0,13.758-3.43,17.129-9.23,18.797l.39,1.364c4.64-.352,8.84-.704,13.49-1.02c5.04,0,10.06-.344,16.23-.344c69.83,0,111.1.66,137.72,4.383-6.58-11.422-12.76-31.211-15.8-47.332h-4.65c0,6.063.76,13.75-11.99,21.16-10.37,6.02-34.69,9.731-54.38,9.731-12.36,0-24.65-.36-36.7-1.7-3.81-13.41-13.04-57.73-15.33-76.48c6.11-1,13.44-1,19.61-1c32.42,0,51.72,0,62.85,6.328c5.88,3.383,8.16,7.422,10.08,11.762h4.65c-6.57-17.801-8.85-33.91-10.06-50.34h-4.67c.47,1,.47,2.3281.47,3.332c0,4.7188-3.52,9.457-10.02,12.129-8.54,3.301-34.77,5.039-53.69,5.039-8.09,0-16.93-.391-20.82-.711-2.66-16.0898-12.35-75.1679-13.13-87.2187c8.17-1.0195,17.39-1.6992,24.34-1.6992c28.53,0,48.22,1.6992,67.13,6.3789c28.16,7.0703,32.42,13.4102,40.13,21.8203l4.65-2.3711" fill="#1c4e9c"/><path d="M5521.8,172.121c0,18.09-23.56,33.57-59.42,33.57-13.88,0-24.67-2.691-30.82-7.402-10.45-7.699-13.14-21.828-13.14-25.828c0-27.211,26.56-39.961,57.46-49.301c42.87-13.148,52.48-27.2108,52.48-47.6991c0-16.1015-10-31.8711-25.84-44.9609-23.13-18.7891-47.85-24.87109-74.08-24.87109-21.58,0-46.29,4.74219-64.4,9.46089c5.73,9.3711,10.37,37.5508,10.37,49.9922h5.82c.75-8.7226,2.66-14.7617,8.09-21.4922c10.76-13.4296,32.32-24.4804,55.96-24.4804c29.31,0,51.27,11.3906,51.27,42.9726c0,28.8282-33.17,36.918-67.87,50.297-20.82,8.051-42.04,19.133-42.04,43.621c0,18.488,9.22,32.59,24.26,43.32c17.4,12.379,38.23,19.801,71.41,19.801c11.19,0,20.82-.699,28.51-1.359c8.15-1.024,14.34-1.66,18.17-1.66c3.06,0,8.08.636,9.67,1.019-6.18-16.422-8.91-27.539-10.06-45h-5.8" fill="#1c4e9c"/><path d="M2231.13,967.93L2012.49,441.664l35.5,176.16-21.94,406.346-297.53-30.861v0l-228.87-23.692L1249.32,695.02l87.25,144.203l132.36,514.447-330.09-43.28L878.883,306h320.307l38.08,148.152l101.58,104.414L1369.88,306h328.78L1622.5,796.977l119.45,110.14l82.03-524.867c1.45-12.754,7.91-51.289,7.91-63.961c0-107.25-61.49-106.867-125.01-106.867-36.64,0-53.41.769-72.16.769L1544.59,13.9219c49.36-5.66018,95.92-11.29299,211.6-11.29299c86.05,0,206.05,0,302.02,98.73009c40.9,42.43,67.71,95.981,94.52,148.211c12.7,21.149,23.97,42.309,35.26,63.469l375.34,698.421-332.2-43.53" fill="#1c4e9c"/><path d="M1009.47,1053.4c1.57,16.43,2.24,33.38,2.24,48.38c0,173.56-167.909,225.75-406.378,225.75-74.789,0-204.625-7.05-313.277-73.38-110.039-69.1-163.657-177.76-163.657-282.209c0-165.046,118.543-215.781,204.625-251.097l97.348-36.715c73.359-26.793,100.172-36.703,121.344-59.281c14.101-14.094,25.387-36.641,25.387-60.645c0-42.297-33.86-110.051-124.168-110.051-52.227,0-87.52,26.797-101.586,52.207-8.489,16.887-11.336,36.692-11.336,56.438c0,14.082,1.547,21.16,1.547,33.828L0,551.828c0-2.312,0-4.707,0-7.371C0,335.66,176.371,280.539,420.453,280.539c101.59,0,262.481,8.531,390.879,118.574c84.609,73.379,125.57,167.891,125.57,262.473c0,173.543-119.914,224.305-198.957,258.187L637.727,956.469c-84.625,29.64-101.536,36.683-122.707,56.431-12.731,9.87-28.235,31.04-28.235,56.43c0,39.52,31.031,86.04,111.5,86.04c40.895,0,98.727-16.88,98.727-87.42c0-9.93-2.563-39.51-7.051-56.49l319.509,41.94" fill="#1c4e9c"/><path d="M2608.3,1043.44l-131.84-17.3l28.44,281.39l351.92,46.14-75.92-550.561-54.36-241.203l330.9,753.744l290.04,38.02-37.97-517.139c-.04-.633-.04-1.168-.12-1.84l-41.91-275.48l281.27,747.649l356.84,46.81L3466.13,306h-430.29l26.76,372.477c7.13,81.855,9.92,104.429,19.8,182.078-22.61-59.301-31.07-80.508-57.83-143.95L2835.42,306h-431.74l44.03,435.828L2608.3,1043.44" fill="#1c4e9c"/><path d="M4113.16,897.168c38.09,0,63.52-19.68,63.52-64.863c0-31.438-16.31-89.91-24.98-117.86l-175.92-23.382v0c26.23,97.542,41.86,206.105,137.38,206.105Zm-1.66-387.926c-22.3-66.496-49.66-94.023-111.32-94.023-43.81,0-72.99,26.824-68.93,75.703c2.81,34.16,11.17,53.73,17.66,80.371l484.61,64.336c7.09,23.992,21.6,80.976,21.6,147.277c0,178.867-140.94,249.774-335.53,249.774-251.19,0-348.52-93.125-405-200.375-42.23-80.446-76.17-221.551-76.17-306.207c0-33.86,1.48-122.766,83.3-181.977c36.7-28.25,83.24-40.961,129.86-49.391c40.84-7.07,83.21-9.91,124.14-9.91c129.24,0,259.79,16.602,345.9,93.082c56.17,49.844,73.75,104.934,91.02,171.34l-301.14-40" fill="#1c4e9c"/><path d="M4994.51,754.691l-86.11,26.813c-64.85,19.75-112.81,35.285-112.81,76.184c0,32.476,32.5,50.781,73.34,50.781c40.93,0,67.75-12.66,67.75-53.625c0-7.039-4.65-40.985-4.65-48.055l277.99,36.496c1.03,8.93,1.8,17.32,1.8,22.86c0,128.414-138.27,167.925-337.25,167.925-81.84,0-166.48-9.9-239.78-46.59-104.52-50.792-146.8-138.199-146.8-214.441c0-127,97.36-166.504,162.26-191.902l88.93-32.481c63.44-21.152,100.12-33.82,100.12-74.738c0-28.25-25.34-59.266-78.97-59.266-24.02,0-75.04,4.207-75.04,66.297c0,8.489,2.56,22.551,3.97,29.629l-277.27-36.375c-.23-5.449-.17-11.074-.17-17.265c0-88.34,59.98-143.618,169.29-159.407c76.18-12.711,143.85-12.711,167.87-12.711c76.23,0,193.31,8.512,275.22,62.078c76.15,50.809,126.93,139.727,126.93,222.899-1.42,129.871-101.6,165.164-156.62,184.894" fill="#1c4e9c"/><path d="M5468.55,893.129l-175.97-27.938-75.67-293.929c-9.86-39.512-18.34-74.805-18.34-112.852c0-57.898,16.9-114.289,101.55-146.75c38.18-14.129,77.61-18.328,118.55-18.328c73.38,0,136.9,12.668,191.86,23.957l40.95,159.461c-16.95-2.832-31.03-4.258-47.91-4.258-19.84,0-69.21,0-69.21,49.414c0,16.926,4.25,35.215,16.93,93.125l72.67,277.782h102.99l30.37,118.647h-103.04l49.43,190.47-335.92-44.01-36.62-146.46h-73.36l-31.83-118.647l242.57.316" fill="#1c4e9c"/></g><clipPath id="ezcjfvHPh6M25"><path d="M0,0h5757.32v1353.67h-5757.32Z"/></clipPath></g></g></g></g></g></g></svg>
